<mxfile host="app.diagrams.net" modified="2024-07-02T05:11:02.775Z" agent="Mozilla/5.0 (Windows NT 10.0; Win64; x64) AppleWebKit/537.36 (KHTML, like Gecko) Chrome/126.0.0.0 Safari/537.36" version="24.6.4" etag="OvQkLw7OVHbCv50UmdiL" type="github">
  <diagram name="ページ1" id="pqIAfwW8-8bdEmiaqYHj">
    <mxGraphModel>
      <root>
        <mxCell id="0" />
        <mxCell id="1" parent="0" />
      </root>
    </mxGraphModel>
  </diagram>
</mxfile>
